<svg class="icon" viewBox="0 0 1024 1024" xmlns="http://www.w3.org/2000/svg" width="200" height="200"><path d="M968.142 482.699q-.928-24.392-3.78-48.451c-16.658-90.284-85.986-167.715-184.36-193.008-102.432-26.328-207.013 11.353-267.627 87.538-60.56-76.768-165.552-114.874-268.383-88.44-98.44 25.306-167.754 102.724-184.413 193.008q-2.891 24.06-3.78 48.464a616.386 616.386 0 0 0 22.548 189.665C113.282 796.535 184.453 903 278.052 983.295l.133-.159a163.457 163.457 0 0 0 148.204 34.697 158.443 158.443 0 0 0 85.23-54.91 158.377 158.377 0 0 0 85.973 55.825 163.457 163.457 0 0 0 148.204-34.736l.133.159c93.639-80.283 164.783-186.76 199.705-311.82a616.386 616.386 0 0 0 22.508-189.652z" fill="#FF505D"/><path d="M469.442 979.078z" fill="#D6D6D6"/><path d="M501.009 236.425a237.798 237.798 0 0 0 3.78 42.31 237.798 237.798 0 0 0 42.31 3.78A236.59 236.59 0 0 0 779.75 3.787 236.59 236.59 0 0 0 501.01 236.425z" fill="#60B71C"/><path d="M501.009 236.73a154.067 154.067 0 0 1-2.454 27.416A153.284 153.284 0 0 1 320.442 86.019 153.284 153.284 0 0 1 501.009 236.73z" fill="#60B71C"/><path d="M146.693 523.178a6.632 6.632 0 0 1-6.632-7.427c9.284-77.034 46.421-123.35 75.959-148.748 32.11-27.535 61.82-36.687 63.067-37.058a6.632 6.632 0 0 1 3.833 12.693c-.53.16-28.821 9.032-58.717 34.83-40.081 34.603-63.955 81.662-70.932 139.808a6.632 6.632 0 0 1-6.578 5.902zm393.336-264.537a6.632 6.632 0 0 1-5.783-9.867c.77-1.327 19.219-34.114 53.836-76.026 31.965-38.702 84.235-92.578 151.693-129.49a6.632 6.632 0 0 1 6.366 11.632c-125.564 68.704-199.586 199.043-200.276 200.356a6.632 6.632 0 0 1-5.836 3.395zm-64.99-6.631a6.632 6.632 0 0 1-5.81-3.435c-.49-.902-50.121-89.952-111.013-117.871a6.632 6.632 0 1 1 5.53-12.057c27.39 12.547 55.441 37.137 83.387 73.253a427.41 427.41 0 0 1 33.729 50.268 6.632 6.632 0 0 1-5.796 9.829z" fill="#FFF"/></svg>